<svg width="218" height="233" viewBox="0 0 218 233" fill="none" xmlns="http://www.w3.org/2000/svg">
<path d="M67.6754 100.01C68.2659 96.0248 69.2537 92.156 70.6412 88.4037C72.0286 84.6515 73.7817 81.1031 75.8981 77.7634L76.35 77.0523L76.0912 76.2392C75.4508 74.2296 74.8717 72.1884 74.3676 70.1739C72.7076 63.5456 72.5918 60.2811 72.4896 57.4002C72.3965 54.7425 72.317 52.4465 71.0408 48.5632L70.9772 48.369C70.8569 48.0025 70.6094 47.2598 70.5344 46.7744C71.6244 46.8521 73.482 47.7622 74.3971 48.2088C79.0614 50.4927 81.7978 54.0508 83.0127 55.9682C83.4873 56.7133 83.9164 57.4876 84.3025 58.2885L85.1404 60.0239L86.6505 58.9268C88.2447 57.7715 90.8743 56.3711 94.3441 56.257C94.494 56.2522 94.6393 56.2497 94.7869 56.2497C98.4838 56.2497 101.288 57.7958 102.63 58.7181L103.362 59.2229L104.159 58.8443C106.075 57.9414 107.935 56.922 109.738 55.7813C111.902 54.4124 113.48 53.2135 114.875 52.1577C116.998 50.5437 118.533 49.3787 120.972 48.5122C121.844 48.204 122.734 47.9685 123.64 47.8059C123.215 49.1141 122.73 50.3932 122.178 51.6431C120.892 54.5653 119.793 56.1065 118.826 57.4681C117.691 59.0603 116.616 60.5651 115.803 63.5358C115.576 64.3611 115.42 65.111 115.254 65.9047C114.929 67.458 114.593 69.0623 113.664 71.4943C113.253 72.5743 113.04 72.9918 112.883 73.2951C112.708 73.6349 112.545 73.9529 112.343 74.63C111.341 77.994 112.154 80.6686 112.808 82.819C113.326 84.5156 113.732 85.8553 113.376 87.3431C112.577 90.6852 108.096 92.5225 107.906 92.6002C106.877 93.0128 105.828 93.2142 104.697 93.2142C101.906 93.2142 98.9562 91.957 96.1017 90.7386C91.9348 88.9595 89.6072 87.1635 87.736 85.7218C85.8671 84.2777 84.382 83.1345 82.2383 83.1345C81.8772 83.137 81.5184 83.1685 81.1619 83.2292C77.2334 83.8991 74.8149 87.9256 69.9962 95.9471C69.1946 97.282 68.4203 98.6363 67.6754 100.01Z" fill="white"/>
<path d="M85.9216 152.54C84.9383 144.958 82.6039 138.478 78.9683 133.252C77.9532 131.789 76.8496 130.446 75.7846 129.145C73.3025 126.121 70.7365 122.993 68.8154 117.889C67.9388 115.551 67.3098 113.141 66.9306 110.656C69.7986 106.433 72.4941 102.117 74.9512 97.8142C75.5121 96.8337 76.0185 95.9235 76.4862 95.0886C79.0228 90.5427 80.115 88.6908 81.7205 88.4481C81.8204 88.4335 81.9226 88.4238 82.0248 88.4238C82.6833 88.4238 83.2919 88.8777 84.7226 89.999C85.5923 90.681 86.6755 91.5281 88.1402 92.511C92.0869 95.1566 98.1886 98.3093 104.842 98.3093C106.112 98.3118 107.372 98.1904 108.619 97.9453C109.116 97.8482 109.611 97.7268 110.101 97.5861C109.375 99.6078 108.51 101.557 107.51 103.44C102.165 113.491 94.1079 119.219 88.29 122.255L87.1751 122.837L87.4112 124.138C88.5762 130.531 88.9191 137.021 88.4286 143.431C88.2083 146.332 87.82 149.205 87.2636 152.055L85.9216 152.54Z" fill="white"/>
<path d="M169.745 179.281C166.103 173.801 162.013 168.738 157.471 164.088C148.862 155.285 139.107 145.307 124.771 143.559C123.254 143.377 121.73 143.288 120.202 143.288C114.096 143.288 108.771 144.669 104.883 145.678C100.596 146.792 96.4357 148.309 92.4049 150.229C92.8909 148.183 93.2656 146.113 93.5245 144.018C94.2852 137.851 94.0377 131.601 92.791 125.419C96.3335 123.225 99.6239 120.665 102.667 117.735C106.243 114.284 110.697 109.988 113.372 102.828C113.844 101.561 114.241 100.268 114.559 98.9473C116.63 101.251 118.912 103.282 121.406 105.044C127.394 109.262 132.44 110.267 136.891 111.155C138.709 111.517 140.426 111.859 142.138 112.391C164.763 119.432 172.795 156.088 172.806 164.821C172.811 169.274 171.827 173.325 171.816 173.366C171.31 175.41 170.619 177.383 169.745 179.281Z" fill="white"/>
<path d="M88.1671 186.108C71.7126 186.108 58.9891 181.427 50.3463 172.191C48.3457 170.051 46.5881 167.699 45.0735 165.143C54.7994 164.738 64.4323 163.495 73.9721 161.415C86.0529 158.777 94.0054 155.636 100.398 153.112C106.899 150.544 111.595 148.69 117.531 148.476C117.895 148.464 118.265 148.457 118.639 148.457C133.066 148.457 148.369 158.879 164.176 179.453C156.764 177.23 149.248 176.072 141.766 176.012L141.13 176.009C130.232 176.009 123.896 178.342 117.191 180.81C111.073 183.062 104.746 185.392 94.3051 185.921C92.7678 186.002 90.6627 186.108 88.1671 186.108Z" fill="white"/>
<path d="M67.6756 100.01C68.266 96.0248 69.2539 92.156 70.6413 88.4037C72.0288 84.6515 73.7819 81.1031 75.8983 77.7634L76.3502 77.0523L76.0913 76.2392C75.451 74.2296 74.8719 72.1884 74.3678 70.1739C72.7078 63.5456 72.592 60.2811 72.4898 57.4002C72.3967 54.7425 72.3172 52.4465 71.041 48.5632L70.9774 48.369C70.8571 48.0025 70.6095 47.2598 70.5346 46.7744C71.6246 46.8521 73.4822 47.7622 74.3973 48.2088C79.0616 50.4927 81.7979 54.0508 83.0128 55.9682C83.4874 56.7133 83.9166 57.4876 84.3027 58.2885L85.1406 60.0239L86.6507 58.9268C88.2448 57.7715 90.8745 56.3711 94.3443 56.257C94.4942 56.2522 94.6395 56.2497 94.7871 56.2497C98.484 56.2497 101.289 57.7958 102.631 58.7181L103.362 59.2229L104.159 58.8443C106.075 57.9414 107.935 56.922 109.738 55.7813C111.902 54.4124 113.481 53.2135 114.875 52.1577C116.998 50.5437 118.533 49.3787 120.972 48.5122C121.844 48.204 122.734 47.9685 123.64 47.8059C123.216 49.1141 122.73 50.3932 122.178 51.6431C120.893 54.5653 119.794 56.1065 118.826 57.4681C117.691 59.0603 116.617 60.5651 115.804 63.5358C115.577 64.3611 115.42 65.111 115.254 65.9047C114.929 67.458 114.593 69.0623 113.665 71.4943C113.254 72.5743 113.04 72.9918 112.883 73.2951C112.709 73.6349 112.545 73.9529 112.343 74.63C111.341 77.994 112.154 80.6686 112.808 82.819C113.326 84.5156 113.733 85.8553 113.376 87.3431C112.577 90.6852 108.096 92.5225 107.906 92.6002C106.877 93.0128 105.828 93.2142 104.697 93.2142C101.906 93.2142 98.9564 91.957 96.1019 90.7386C91.9349 88.9595 89.6073 87.1635 87.7362 85.7218C85.8673 84.2777 84.3822 83.1345 82.2385 83.1345C81.8774 83.137 81.5186 83.1685 81.1621 83.2292C77.2336 83.8991 74.8151 87.9256 69.9964 95.9471C69.1948 97.282 68.4205 98.6363 67.6756 100.01Z" fill="white"/>
<path d="M85.9218 152.54C84.9386 144.958 82.6041 138.478 78.9685 133.252C77.9535 131.789 76.8499 130.446 75.7848 129.145C73.3028 126.121 70.7368 122.993 68.8156 117.889C67.9391 115.551 67.3101 113.141 66.9308 110.656C69.7989 106.433 72.4944 102.117 74.9514 97.8142C75.5123 96.8337 76.0187 95.9235 76.4865 95.0886C79.023 90.5427 80.1153 88.6908 81.7208 88.4481C81.8207 88.4335 81.9229 88.4238 82.0251 88.4238C82.6836 88.4238 83.2922 88.8777 84.7228 89.999C85.5926 90.681 86.6757 91.5281 88.1404 92.511C92.0871 95.1566 98.1889 98.3093 104.842 98.3093C106.112 98.3118 107.372 98.1904 108.619 97.9453C109.116 97.8482 109.611 97.7268 110.102 97.5861C109.375 99.6078 108.51 101.557 107.511 103.44C102.165 113.491 94.1082 119.219 88.2903 122.255L87.1753 122.837L87.4115 124.138C88.5764 130.531 88.9193 137.021 88.4288 143.431C88.2086 146.332 87.8202 149.205 87.2639 152.055L85.9218 152.54Z" fill="white"/>
<path d="M169.745 179.281C166.103 173.801 162.013 168.738 157.471 164.088C148.862 155.285 139.107 145.307 124.771 143.559C123.254 143.377 121.731 143.288 120.202 143.288C114.096 143.288 108.771 144.669 104.883 145.678C100.596 146.792 96.4357 148.309 92.405 150.229C92.891 148.183 93.2656 146.113 93.5245 144.018C94.2852 137.851 94.0377 131.601 92.791 125.419C96.3335 123.225 99.624 120.665 102.667 117.735C106.243 114.284 110.697 109.988 113.372 102.828C113.844 101.561 114.241 100.268 114.559 98.9473C116.63 101.251 118.912 103.282 121.406 105.044C127.394 109.262 132.44 110.267 136.891 111.155C138.71 111.517 140.426 111.859 142.139 112.391C164.763 119.432 172.795 156.088 172.806 164.821C172.811 169.274 171.827 173.325 171.816 173.366C171.31 175.41 170.619 177.383 169.745 179.281Z" fill="white"/>
<path d="M88.1668 186.108C71.7124 186.108 58.9889 181.427 50.3461 172.191C48.3455 170.051 46.5879 167.699 45.0732 165.143C54.7992 164.738 64.4321 163.495 73.9718 161.415C86.0527 158.777 94.0051 155.636 100.398 153.112C106.899 150.544 111.595 148.69 117.531 148.476C117.894 148.464 118.264 148.457 118.639 148.457C133.066 148.457 148.369 158.879 164.176 179.453C156.764 177.23 149.248 176.072 141.765 176.012L141.129 176.009C130.232 176.009 123.896 178.342 117.19 180.81C111.073 183.062 104.746 185.392 94.3049 185.921C92.7675 186.002 90.6625 186.108 88.1668 186.108Z" fill="white"/>
<path d="M67.6756 100.01C68.266 96.0248 69.2539 92.156 70.6413 88.4037C72.0288 84.6515 73.7819 81.1031 75.8983 77.7634L76.3502 77.0523L76.0913 76.2392C75.451 74.2296 74.8719 72.1884 74.3678 70.1739C72.7078 63.5456 72.592 60.2811 72.4898 57.4002C72.3967 54.7425 72.3172 52.4465 71.041 48.5632L70.9774 48.369C70.8571 48.0025 70.6095 47.2598 70.5346 46.7744C71.6246 46.8521 73.4822 47.7622 74.3973 48.2088C79.0616 50.4927 81.7979 54.0508 83.0128 55.9682C83.4874 56.7133 83.9166 57.4876 84.3027 58.2885L85.1406 60.0239L86.6507 58.9268C88.2448 57.7715 90.8745 56.3711 94.3443 56.257C94.4942 56.2522 94.6395 56.2497 94.7871 56.2497C98.484 56.2497 101.289 57.7958 102.631 58.7181L103.362 59.2229L104.159 58.8443C106.075 57.9414 107.935 56.922 109.738 55.7813C111.902 54.4124 113.481 53.2135 114.875 52.1577C116.998 50.5437 118.533 49.3787 120.972 48.5122C121.844 48.204 122.734 47.9685 123.64 47.8059C123.216 49.1141 122.73 50.3932 122.178 51.6431C120.893 54.5653 119.794 56.1065 118.826 57.4681C117.691 59.0603 116.617 60.5651 115.804 63.5358C115.577 64.3611 115.42 65.111 115.254 65.9047C114.929 67.458 114.593 69.0623 113.665 71.4943C113.254 72.5743 113.04 72.9918 112.883 73.2951C112.709 73.6349 112.545 73.9529 112.343 74.63C111.341 77.994 112.154 80.6686 112.808 82.819C113.326 84.5156 113.733 85.8553 113.376 87.3431C112.577 90.6852 108.096 92.5225 107.906 92.6002C106.877 93.0128 105.828 93.2142 104.697 93.2142C101.906 93.2142 98.9564 91.957 96.1019 90.7386C91.9349 88.9595 89.6073 87.1635 87.7362 85.7218C85.8673 84.2777 84.3822 83.1345 82.2385 83.1345C81.8774 83.137 81.5186 83.1685 81.1621 83.2292C77.2336 83.8991 74.8151 87.9256 69.9964 95.9471C69.1948 97.282 68.4205 98.6363 67.6756 100.01Z" fill="white"/>
<path d="M85.9218 152.54C84.9386 144.958 82.6041 138.478 78.9685 133.252C77.9535 131.789 76.8499 130.446 75.7848 129.145C73.3028 126.121 70.7368 122.993 68.8156 117.889C67.9391 115.551 67.3101 113.141 66.9308 110.656C69.7989 106.433 72.4944 102.117 74.9514 97.8142C75.5123 96.8337 76.0187 95.9235 76.4865 95.0886C79.023 90.5427 80.1153 88.6908 81.7208 88.4481C81.8207 88.4335 81.9229 88.4238 82.0251 88.4238C82.6836 88.4238 83.2922 88.8777 84.7228 89.999C85.5926 90.681 86.6757 91.5281 88.1404 92.511C92.0871 95.1566 98.1889 98.3093 104.842 98.3093C106.112 98.3118 107.372 98.1904 108.619 97.9453C109.116 97.8482 109.611 97.7268 110.102 97.5861C109.375 99.6078 108.51 101.557 107.511 103.44C102.165 113.491 94.1082 119.219 88.2903 122.255L87.1753 122.837L87.4115 124.138C88.5764 130.531 88.9193 137.021 88.4288 143.431C88.2086 146.332 87.8202 149.205 87.2639 152.055L85.9218 152.54Z" fill="white"/>
<path d="M169.745 179.281C166.103 173.801 162.013 168.738 157.471 164.088C148.862 155.285 139.107 145.307 124.771 143.559C123.254 143.377 121.731 143.288 120.202 143.288C114.096 143.288 108.771 144.669 104.883 145.678C100.596 146.792 96.4357 148.309 92.405 150.229C92.891 148.183 93.2656 146.113 93.5245 144.018C94.2852 137.851 94.0377 131.601 92.791 125.419C96.3335 123.225 99.624 120.665 102.667 117.735C106.243 114.284 110.697 109.988 113.372 102.828C113.844 101.561 114.241 100.268 114.559 98.9473C116.63 101.251 118.912 103.282 121.406 105.044C127.394 109.262 132.44 110.267 136.891 111.155C138.71 111.517 140.426 111.859 142.139 112.391C164.763 119.432 172.795 156.088 172.806 164.821C172.811 169.274 171.827 173.325 171.816 173.366C171.31 175.41 170.619 177.383 169.745 179.281Z" fill="white"/>
<path d="M88.1668 186.108C71.7124 186.108 58.9889 181.427 50.3461 172.191C48.3455 170.051 46.5879 167.699 45.0732 165.143C54.7992 164.738 64.4321 163.495 73.9718 161.415C86.0527 158.777 94.0051 155.636 100.398 153.112C106.899 150.544 111.595 148.69 117.531 148.476C117.894 148.464 118.264 148.457 118.639 148.457C133.066 148.457 148.369 158.879 164.176 179.453C156.764 177.23 149.248 176.072 141.765 176.012L141.129 176.009C130.232 176.009 123.896 178.342 117.19 180.81C111.073 183.062 104.746 185.392 94.3049 185.921C92.7675 186.002 90.6625 186.108 88.1668 186.108Z" fill="white"/>
<path d="M67.6756 100.01C68.266 96.0248 69.2539 92.156 70.6413 88.4037C72.0288 84.6515 73.7819 81.1031 75.8983 77.7634L76.3502 77.0523L76.0913 76.2392C75.451 74.2296 74.8719 72.1884 74.3678 70.1739C72.7078 63.5456 72.592 60.2811 72.4898 57.4002C72.3967 54.7425 72.3172 52.4465 71.041 48.5632L70.9774 48.369C70.8571 48.0025 70.6095 47.2598 70.5346 46.7744C71.6246 46.8521 73.4822 47.7622 74.3973 48.2088C79.0616 50.4927 81.7979 54.0508 83.0128 55.9682C83.4874 56.7133 83.9166 57.4876 84.3027 58.2885L85.1406 60.0239L86.6507 58.9268C88.2448 57.7715 90.8745 56.3711 94.3443 56.257C94.4942 56.2522 94.6395 56.2497 94.7871 56.2497C98.484 56.2497 101.289 57.7958 102.631 58.7181L103.362 59.2229L104.159 58.8443C106.075 57.9414 107.935 56.922 109.738 55.7813C111.902 54.4124 113.481 53.2135 114.875 52.1577C116.998 50.5437 118.533 49.3787 120.972 48.5122C121.844 48.204 122.734 47.9685 123.64 47.8059C123.216 49.1141 122.73 50.3932 122.178 51.6431C120.893 54.5653 119.794 56.1065 118.826 57.4681C117.691 59.0603 116.617 60.5651 115.804 63.5358C115.577 64.3611 115.42 65.111 115.254 65.9047C114.929 67.458 114.593 69.0623 113.665 71.4943C113.254 72.5743 113.04 72.9918 112.883 73.2951C112.709 73.6349 112.545 73.9529 112.343 74.63C111.341 77.994 112.154 80.6686 112.808 82.819C113.326 84.5156 113.733 85.8553 113.376 87.3431C112.577 90.6852 108.096 92.5225 107.906 92.6002C106.877 93.0128 105.828 93.2142 104.697 93.2142C101.906 93.2142 98.9564 91.957 96.1019 90.7386C91.9349 88.9595 89.6073 87.1635 87.7362 85.7218C85.8673 84.2777 84.3822 83.1345 82.2385 83.1345C81.8774 83.137 81.5186 83.1685 81.1621 83.2292C77.2336 83.8991 74.8151 87.9256 69.9964 95.9471C69.1948 97.282 68.4205 98.6363 67.6756 100.01Z" fill="white"/>
<path d="M85.9218 152.54C84.9386 144.958 82.6041 138.478 78.9685 133.252C77.9535 131.789 76.8499 130.446 75.7848 129.145C73.3028 126.121 70.7368 122.993 68.8156 117.889C67.9391 115.551 67.3101 113.141 66.9308 110.656C69.7989 106.433 72.4944 102.117 74.9514 97.8142C75.5123 96.8337 76.0187 95.9235 76.4865 95.0886C79.023 90.5427 80.1153 88.6908 81.7208 88.4481C81.8207 88.4335 81.9229 88.4238 82.0251 88.4238C82.6836 88.4238 83.2922 88.8777 84.7228 89.999C85.5926 90.681 86.6757 91.5281 88.1404 92.511C92.0871 95.1566 98.1889 98.3093 104.842 98.3093C106.112 98.3118 107.372 98.1904 108.619 97.9453C109.116 97.8482 109.611 97.7268 110.102 97.5861C109.375 99.6078 108.51 101.557 107.511 103.44C102.165 113.491 94.1082 119.219 88.2903 122.255L87.1753 122.837L87.4115 124.138C88.5764 130.531 88.9193 137.021 88.4288 143.431C88.2086 146.332 87.8202 149.205 87.2639 152.055L85.9218 152.54Z" fill="white"/>
<path d="M169.745 179.281C166.103 173.801 162.013 168.738 157.471 164.088C148.862 155.285 139.107 145.307 124.771 143.559C123.254 143.377 121.731 143.288 120.202 143.288C114.096 143.288 108.771 144.669 104.883 145.678C100.596 146.792 96.4357 148.309 92.405 150.229C92.891 148.183 93.2656 146.113 93.5245 144.018C94.2852 137.851 94.0377 131.601 92.791 125.419C96.3335 123.225 99.624 120.665 102.667 117.735C106.243 114.284 110.697 109.988 113.372 102.828C113.844 101.561 114.241 100.268 114.559 98.9473C116.63 101.251 118.912 103.282 121.406 105.044C127.394 109.262 132.44 110.267 136.891 111.155C138.71 111.517 140.426 111.859 142.139 112.391C164.763 119.432 172.795 156.088 172.806 164.821C172.811 169.274 171.827 173.325 171.816 173.366C171.31 175.41 170.619 177.383 169.745 179.281Z" fill="white"/>
<path d="M88.1668 186.108C71.7124 186.108 58.9889 181.427 50.3461 172.191C48.3455 170.051 46.5879 167.699 45.0732 165.143C54.7992 164.738 64.4321 163.495 73.9718 161.415C86.0527 158.777 94.0051 155.636 100.398 153.112C106.899 150.544 111.595 148.69 117.531 148.476C117.894 148.464 118.264 148.457 118.639 148.457C133.066 148.457 148.369 158.879 164.176 179.453C156.764 177.23 149.248 176.072 141.765 176.012L141.129 176.009C130.232 176.009 123.896 178.342 117.19 180.81C111.073 183.062 104.746 185.392 94.3049 185.921C92.7675 186.002 90.6625 186.108 88.1668 186.108Z" fill="white"/>
</svg>
